PathFileType	4	(X/Y/Z)	Patient4_TMGait_0pt6_01_right_05.trc.trc
DataRate	CameraRate	NumFrames	NumMarkers	Units	OrigDataRate	OrigDataStartFrame	OrigNumFrames
76.086956521739	76.086956521739	6	33	mm	76.086956521739	124	       141
Frame#	Time	Sacral			L.Shoulder			Chest			R.Shoulder			Neck			R.ASIS			L.ASIS			R.Thigh.Superior			R.Thigh.Lateral			R.Thigh.Inferior			R.Patella			L.Thigh.Superior			L.Thigh.Lateral			L.Thigh.Inferior			L.Patella			L.Shank.Superior			L.Shank.Lateral			L.Shank.Inferior			R.Shank.Superior			R.Shank.Lateral			R.Shank.Inferior			R.Heel			R.Midfoot.Superior			R.Midfoot.Lateral			R.Toe			L.Heel			L.Midfoot.Lateral			L.Midfoot.Superior			L.Toe			L.Elbow			L.Wrist			R.Elbow			R.Wrist			
		X1	Y1	Z1	X2	Y2	Z2	X3	Y3	Z3	X4	Y4	Z4	X5	Y5	Z5	X6	Y6	Z6	X7	Y7	Z7	X8	Y8	Z8	X9	Y9	Z9	X10	Y10	Z10	X11	Y11	Z11	X12	Y12	Z12	X13	Y13	Z13	X14	Y14	Z14	X15	Y15	Z15	X16	Y16	Z16	X17	Y17	Z17	X18	Y18	Z18	X19	Y19	Z19	X20	Y20	Z20	X21	Y21	Z21	X22	Y22	Z22	X23	Y23	Z23	X24	Y24	Z24	X25	Y25	Z25	X26	Y26	Z26	X27	Y27	Z27	X28	Y28	Z28	X29	Y29	Z29	X30	Y30	Z30	X31	Y31	Z31	X32	Y32	Z32	X33	Y33	Z33	

124	7.006571428571	622.075271302492	990.159283509804	454.638324055164	789.336802919771	1427.935106240156	288.660810341821	884.651524395505	1360.835915548087	454.515027910841	785.656317216216	1426.566281961876	623.096986864191	759.513232595500	1484.393401056726	442.575170826357	842.477119964807	935.894615281746	586.272143899767	843.235445986880	949.160904051459	310.591929804240	910.181826950904	750.624305307778	561.090200477437	850.094138521901	629.350093367769	621.947692739997	938.190753877224	590.360842047230	544.141748221229	961.049653354047	509.420763545374	553.067153038969	840.550720917494	719.647529471252	341.779118710076	719.760808181762	626.623213792227	282.623655980750	775.613398962481	532.031584636074	349.172934182646	756.483780254277	462.029778610236	360.671796615570	714.703628497906	398.810408506699	354.643439798783	601.246232847489	306.463987187938	306.126401102072	622.832122104062	189.069303522800	380.769439072684	951.943038509484	420.288402516959	561.188244810894	904.481475566464	302.550277816781	618.750775858206	976.937775740639	222.391640015243	564.479460907082	887.635844235565	42.025502836956	527.686673560007	1051.021980439250	108.354242232751	572.679028645683	968.285527227428	38.559164352744	604.892358178324	1172.887989003028	66.006817428043	603.823732477822	467.422527500274	50.583966241111	424.817193966306	542.504798050731	39.720196538435	346.699034001179	629.328015502646	96.488402660826	371.981172647472	753.891735248510	37.802580049434	346.843911696690	848.752117400672	1083.917466638923	162.935516263252	1086.950909605904	1005.665612725337	220.401191287373	681.740245510891	1088.976695857082	714.696628744274	720.524709244327	830.014305829850	706.900805192992	
125	7.019714285714	623.846544522283	989.332251892734	457.093854624797	788.440118754034	1427.166089896100	290.667547135244	884.814018505589	1360.752287747000	456.210392383700	786.169173835269	1425.981887679046	625.213053233398	759.303010004711	1483.767374881237	444.611354193351	845.181446887582	935.101197961764	587.860568726071	844.685677185577	948.777956703308	312.105275766779	913.471212591033	750.074204259341	561.625089341618	852.395573409633	628.508090766067	621.742031947390	940.671687261026	589.973255162453	544.118156391838	961.877140447232	507.616050715746	552.240074993187	842.361855763702	719.067953721928	342.483717441922	721.345322254285	625.957580204034	284.009397711466	777.957714131629	530.975641112586	349.826030839235	758.832804768297	459.926898462145	360.684036006480	714.748577571711	397.465383440174	354.969129303695	598.794030599223	308.013462987750	306.744088185304	618.055100322806	189.663087266774	380.420849846667	951.567382195534	417.772582935192	560.240771569712	901.623136448699	301.037688023802	617.887337237198	971.356242668128	219.177079304799	562.931337323044	876.813645684557	41.471640097325	526.523547743420	1041.546559409971	104.667319092204	571.073876652388	957.143192619908	37.310780993827	604.157459699038	1162.713386402900	59.946908173108	603.082214387454	460.043312155144	53.846616295042	424.413293321704	534.935124777591	41.070731801566	346.490112951768	622.629138482237	96.883088511154	371.286998230003	746.040688770470	37.670610802063	346.769144807617	847.461600253710	1082.501584086056	165.425602296947	1082.657272488589	993.549673964371	221.702818938061	687.476624443666	1086.558626122027	717.622224678917	733.791457308570	828.732543273764	711.677937690415	
126	7.032857142857	625.649644107822	988.823935687657	459.615276809019	787.596702733885	1426.769428727622	292.817888013032	885.088422785805	1360.959911678551	457.996291853912	786.902082207126	1425.679128819221	627.470868843613	759.195342351480	1483.472931438700	446.813875799440	848.000610686633	934.753086037746	589.400035236629	846.140129507321	948.758363505708	313.667526304962	916.794739998636	749.844413763803	561.940172544633	855.033203316533	628.194595440210	621.722100028627	943.135244664180	589.886365700571	543.957960647283	962.789931395697	506.161388286725	551.484966365463	844.565845826084	718.783464459559	343.267625492008	723.673319292802	625.289211511920	285.427996069379	781.409244135638	530.028901282496	350.400001005740	762.401065973488	457.792869417371	360.414603149940	715.762112969004	396.154917079400	355.121553107264	597.124280912470	309.974475665479	307.338774292708	613.874958969747	190.607402048749	379.933089804435	951.284514720716	415.757325120228	559.501241386569	899.150493251673	300.051298304528	617.503528924532	966.065057920146	216.533787032081	561.717143408578	866.506865175520	41.090093913417	525.871025974135	1032.358186152163	101.782671901851	569.747434931810	946.665813741861	36.444284677669	603.794113672115	1153.030104112646	55.137166845412	602.458291458761	452.969039984940	58.103837455742	423.958082674830	527.499848978949	42.967266871229	346.259703934551	616.307633168566	97.402692921526	370.466112484682	738.117391506968	37.521569109251	346.754653439817	845.784351811465	1081.312929007095	168.183604019413	1077.194953742681	980.734599333544	222.735047378456	693.752769574322	1084.475129572820	720.898429685913	747.872132491649	828.042306261114	716.675439072636	
127	7.046000000000	627.464635800413	988.641154523593	462.205828755807	786.838593552038	1426.776345408764	295.077694330549	885.469520637939	1361.464133692286	459.844251597768	787.846382431872	1425.685522178673	629.825425110192	759.185282126745	1483.527516756209	449.140391643153	850.862340084768	934.876375341342	590.916362815425	847.558259665303	949.118434484564	315.300994908774	919.986536411769	749.903577642477	562.104950186283	857.857073513672	628.373906612092	621.948862338883	945.405471838941	590.038765640548	543.731605591413	963.638504810072	505.054078635151	550.911934147909	847.171502710356	718.828157257112	344.158171169419	726.825566577509	624.623594158736	286.841584173226	786.072386525633	529.219972980709	350.847893718662	767.283542428398	455.675351296642	359.806771452350	717.877744005203	394.909266166028	355.045152956954	596.388055573471	312.406122565118	307.870569891978	610.433439881440	191.983559444986	379.283472263047	950.955149772298	414.246249671593	559.033236865808	896.950494872456	299.553190315236	617.573035586872	961.069750106255	214.502786534376	560.866068255986	856.923437142156	40.872775592920	525.645206908688	1023.622008419877	99.745715742762	568.727951091664	937.034859683090	35.935471722568	603.734219626089	1143.993871231532	51.644739653043	601.977539839816	446.335864175437	63.585200573353	423.442725799563	520.280507779651	45.596464315066	346.003314912228	610.456447191943	98.109857394850	369.526816193689	730.117295046716	37.318569308472	346.812794368867	843.697781907579	1080.393001539996	171.214179769103	1070.437880749829	967.439148330991	223.500096056628	700.555271942716	1082.789771605343	724.507851808175	762.732568117863	828.054574265606	721.819870506290	
128	7.059142857143	629.268212048278	988.763196395999	464.879426744370	786.177981746656	1427.179112570485	297.411312290407	885.941560741253	1362.244642942979	461.721763697470	788.982406881948	1426.001424947012	632.229628082536	759.258028734581	1483.915303956864	451.545109219671	853.701179913434	935.447936539225	592.441121687220	848.892196052598	949.834931704417	317.019528657689	922.901222871972	750.185943085987	562.218208702484	860.669908687668	628.954409862740	622.456436566281	947.322571191071	590.338467489397	543.541008821557	964.260047325744	504.241682857811	550.608489171787	850.189709817092	719.219187221097	345.165446629506	730.865644088822	623.964005930638	288.205869029698	792.015656023334	528.575148000627	351.125271588345	773.537811231243	453.627874174032	358.828866886007	721.212039354122	393.757568805592	354.702541913543	596.738724867288	315.347867161309	308.301988940888	607.874160961851	193.867487506451	378.467258609760	950.414713756461	413.176934928497	558.872312712674	894.824810007115	299.449373336198	618.022684601185	956.277662628706	213.040565601150	560.371547548032	848.087650648508	40.792684333436	525.739389918609	1015.362383776429	98.490304517735	568.008947455078	928.241186926619	35.722671929264	603.897073667378	1135.601342853312	49.364094016377	601.648693493145	440.307751901260	70.500063962982	422.863383838816	513.387563199261	49.156780185231	345.717823614218	605.173592134273	99.088743430626	368.493231648737	722.057822618164	37.018316861278	346.946511646767	841.177523073436	1079.760807865920	174.499594587900	1062.276677874498	953.897878629722	224.008730789111	707.850334083450	1081.541023518025	728.421313382846	778.351667635899	828.873744271012	727.039485054600	
129	7.072285714286	631.032084035836	989.144630461125	467.655522829751	785.601965851020	1427.929193971614	299.784749551418	886.480633835440	1363.257053549326	463.593804805328	790.284488625141	1426.597903153620	634.639400786350	759.393683330668	1484.588711873201	453.984655252642	856.461606787070	936.398351992834	594.000360688864	850.090964458517	950.846010058181	318.823733713632	925.420670094153	750.591306991365	562.403472876154	863.225829023302	629.802332279951	623.254178636885	948.741073305777	590.675691981255	543.509503976165	964.485912260596	503.640028141395	550.630998091514	853.629016857724	719.955558970117	346.278754331019	735.828605947568	623.314067214523	289.475577680478	799.257191447962	528.121210721023	351.199550221581	781.172699091605	451.710112822252	357.487872639842	725.848964520885	392.729561123957	354.085643138193	598.316479669615	318.815302321209	308.603532622057	606.330695046224	196.324158797908	377.502125650810	949.492976102354	412.446181875025	559.029458219697	892.540105517641	299.613478370606	618.758786717005	951.542407044256	212.047069114683	560.201799900197	839.896023931952	40.812866159651	526.043249759143	1007.510754631311	97.874198268261	567.561117776911	920.146531733575	35.724749700925	604.202187717529	1127.743479489996	48.074751769962	601.464921882202	435.071162265047	79.007552116271	422.224312139700	506.961540269665	53.837850513217	345.402591601064	600.559455392433	100.444440160825	367.403355302432	713.988497814155	36.578119581793	347.144836019642	838.197297154758	1079.406153918405	177.998870416563	1052.626538160249	940.348246528796	224.278010761631	715.585897610018	1080.738792083482	732.599922874064	794.718446905050	830.595488773299	732.263568968317	
